M48
; DRILL file {KiCad 9.0.8} date 2026-03-22T20:40:14-0400
; FORMAT={-:-/ absolute / inch / decimal}
; #@! TF.CreationDate,2026-03-22T20:40:14-04:00
; #@! TF.GenerationSoftware,Kicad,Pcbnew,9.0.8
; #@! TF.FileFunction,Plated,1,2,PTH
FMAT,2
INCH
; #@! TA.AperFunction,Plated,PTH,ViaDrill
T1C0.0118
; #@! TA.AperFunction,Plated,PTH,ComponentDrill
T2C0.0315
; #@! TA.AperFunction,Plated,PTH,ComponentDrill
T3C0.0374
; #@! TA.AperFunction,Plated,PTH,ComponentDrill
T4C0.0394
%
G90
G05
T1
X5.6693Y-4.8819
X5.7283Y-4.7047
X5.7283Y-4.7835
X6.1661Y-4.5425
X6.2268Y-4.4425
X6.4173Y-3.9764
X6.4173Y-4.6457
X6.5157Y-3.9173
X6.6Y-4.04
X6.86Y-4.64
X7.06Y-3.9
X7.1493Y-4.3145
X7.22Y-3.86
X7.2835Y-4.2913
X7.3Y-4.02
T2
X5.8071Y-4.1425
X5.8071Y-4.2425
X5.8071Y-4.3425
X5.8071Y-4.4425
X5.8071Y-4.5425
X5.8071Y-4.6425
X5.8071Y-4.7425
X5.8071Y-4.8425
X6.4961Y-4.1425
X6.4961Y-4.2425
X6.4961Y-4.3425
X6.4961Y-4.4425
X6.4961Y-4.5425
X6.4961Y-4.6425
X6.4961Y-4.7425
X6.4961Y-4.8425
T3
X5.0787Y-4.3898
X5.0787Y-4.4882
X5.0787Y-4.5866
X5.0787Y-4.685
X5.0787Y-4.7835
X7.5394Y-4.3898
X7.5394Y-4.4882
X7.5394Y-4.5866
X7.5394Y-4.685
X7.5394Y-4.7835
T4
X6.711Y-4.9016
X6.811Y-4.9016
X7.5197Y-3.8567
X7.5197Y-3.9567
X7.5197Y-4.0567
T4
G00X7.0768Y-4.4685
M15
G01X7.1752Y-4.4685
M16
G05
G00X7.0866Y-4.7047
M15
G01X7.1654Y-4.7047
M16
G05
G00X7.311Y-4.626
M15
G01X7.311Y-4.5472
M16
G05
M30
