%TF.GenerationSoftware,KiCad,Pcbnew,9.0.8*%
%TF.CreationDate,2026-03-22T20:40:14-04:00*%
%TF.ProjectId,plotting_robot,706c6f74-7469-46e6-975f-726f626f742e,rev?*%
%TF.SameCoordinates,Original*%
%TF.FileFunction,Copper,L1,Top*%
%TF.FilePolarity,Positive*%
%FSLAX46Y46*%
G04 Gerber Fmt 4.6, Leading zero omitted, Abs format (unit mm)*
G04 Created by KiCad (PCBNEW 9.0.8) date 2026-03-22 20:40:14*
%MOMM*%
%LPD*%
G01*
G04 APERTURE LIST*
G04 Aperture macros list*
%AMRoundRect*
0 Rectangle with rounded corners*
0 $1 Rounding radius*
0 $2 $3 $4 $5 $6 $7 $8 $9 X,Y pos of 4 corners*
0 Add a 4 corners polygon primitive as box body*
4,1,4,$2,$3,$4,$5,$6,$7,$8,$9,$2,$3,0*
0 Add four circle primitives for the rounded corners*
1,1,$1+$1,$2,$3*
1,1,$1+$1,$4,$5*
1,1,$1+$1,$6,$7*
1,1,$1+$1,$8,$9*
0 Add four rect primitives between the rounded corners*
20,1,$1+$1,$2,$3,$4,$5,0*
20,1,$1+$1,$4,$5,$6,$7,0*
20,1,$1+$1,$6,$7,$8,$9,0*
20,1,$1+$1,$8,$9,$2,$3,0*%
G04 Aperture macros list end*
%TA.AperFunction,ComponentPad*%
%ADD10RoundRect,0.250000X-0.725000X0.600000X-0.725000X-0.600000X0.725000X-0.600000X0.725000X0.600000X0*%
%TD*%
%TA.AperFunction,ComponentPad*%
%ADD11O,1.950000X1.700000*%
%TD*%
%TA.AperFunction,ComponentPad*%
%ADD12R,1.700000X1.700000*%
%TD*%
%TA.AperFunction,ComponentPad*%
%ADD13C,1.700000*%
%TD*%
%TA.AperFunction,ComponentPad*%
%ADD14RoundRect,0.250000X0.725000X-0.600000X0.725000X0.600000X-0.725000X0.600000X-0.725000X-0.600000X0*%
%TD*%
%TA.AperFunction,SMDPad,CuDef*%
%ADD15RoundRect,0.250000X0.650000X-0.325000X0.650000X0.325000X-0.650000X0.325000X-0.650000X-0.325000X0*%
%TD*%
%TA.AperFunction,SMDPad,CuDef*%
%ADD16RoundRect,0.250000X-0.650000X0.325000X-0.650000X-0.325000X0.650000X-0.325000X0.650000X0.325000X0*%
%TD*%
%TA.AperFunction,SMDPad,CuDef*%
%ADD17O,1.970000X0.600000*%
%TD*%
%TA.AperFunction,SMDPad,CuDef*%
%ADD18RoundRect,0.250000X0.475000X-0.250000X0.475000X0.250000X-0.475000X0.250000X-0.475000X-0.250000X0*%
%TD*%
%TA.AperFunction,SMDPad,CuDef*%
%ADD19RoundRect,0.248780X0.261220X0.451220X-0.261220X0.451220X-0.261220X-0.451220X0.261220X-0.451220X0*%
%TD*%
%TA.AperFunction,SMDPad,CuDef*%
%ADD20RoundRect,0.250000X-0.475000X0.250000X-0.475000X-0.250000X0.475000X-0.250000X0.475000X0.250000X0*%
%TD*%
%TA.AperFunction,SMDPad,CuDef*%
%ADD21RoundRect,0.248780X-0.451220X0.261220X-0.451220X-0.261220X0.451220X-0.261220X0.451220X0.261220X0*%
%TD*%
%TA.AperFunction,ComponentPad*%
%ADD22O,4.500000X2.000000*%
%TD*%
%TA.AperFunction,ComponentPad*%
%ADD23O,4.000000X2.000000*%
%TD*%
%TA.AperFunction,ComponentPad*%
%ADD24O,2.000000X4.000000*%
%TD*%
%TA.AperFunction,SMDPad,CuDef*%
%ADD25RoundRect,0.150000X-0.590000X-0.150000X0.590000X-0.150000X0.590000X0.150000X-0.590000X0.150000X0*%
%TD*%
%TA.AperFunction,ComponentPad*%
%ADD26O,2.000000X1.200000*%
%TD*%
%TA.AperFunction,ViaPad*%
%ADD27C,0.600000*%
%TD*%
%TA.AperFunction,Conductor*%
%ADD28C,0.254000*%
%TD*%
%TA.AperFunction,Conductor*%
%ADD29C,0.508000*%
%TD*%
%TA.AperFunction,Conductor*%
%ADD30C,0.200000*%
%TD*%
%TA.AperFunction,Conductor*%
%ADD31C,0.203200*%
%TD*%
G04 APERTURE END LIST*
D10*
%TO.P,J1,1,COIL1*%
%TO.N,Net-(J1-COIL1)*%
X191500000Y-111500000D03*
D11*
%TO.P,J1,2,COIL2*%
%TO.N,Net-(J1-COIL2)*%
X191500000Y-114000000D03*
%TO.P,J1,3,COIL3*%
%TO.N,Net-(J1-COIL3)*%
X191500000Y-116500000D03*
%TO.P,J1,4,COIL4*%
%TO.N,Net-(J1-COIL4)*%
X191500000Y-119000000D03*
%TO.P,J1,5,VCC*%
%TO.N,+5VP*%
X191500000Y-121500000D03*
%TD*%
D12*
%TO.P,J3,1,SIG*%
%TO.N,Net-(J3-SIG)*%
X191000000Y-103040000D03*
D13*
%TO.P,J3,2,VCC*%
%TO.N,+5VP*%
X191000000Y-100500000D03*
%TO.P,J3,3,GND*%
%TO.N,GND*%
X191000000Y-97960000D03*
%TD*%
D14*
%TO.P,J2,1,COIL1*%
%TO.N,Net-(J2-COIL1)*%
X129000000Y-121500000D03*
D11*
%TO.P,J2,2,COIL2*%
%TO.N,Net-(J2-COIL2)*%
X129000000Y-119000000D03*
%TO.P,J2,3,COIL3*%
%TO.N,Net-(J2-COIL3)*%
X129000000Y-116500000D03*
%TO.P,J2,4,COIL4*%
%TO.N,Net-(J2-COIL4)*%
X129000000Y-114000000D03*
%TO.P,J2,5,VCC*%
%TO.N,+5VP*%
X129000000Y-111500000D03*
%TD*%
D15*
%TO.P,C9,1*%
%TO.N,+5VP*%
X139000000Y-112980000D03*
%TO.P,C9,2*%
%TO.N,GND*%
X139000000Y-110020000D03*
%TD*%
D16*
%TO.P,C1,1*%
%TO.N,+5V*%
X172000000Y-118020000D03*
%TO.P,C1,2*%
%TO.N,GND*%
X172000000Y-120980000D03*
%TD*%
D15*
%TO.P,C2,1*%
%TO.N,+5VP*%
X185000000Y-110480000D03*
%TO.P,C2,2*%
%TO.N,GND*%
X185000000Y-107520000D03*
%TD*%
D17*
%TO.P,U4,1,1B*%
%TO.N,/M1C1*%
X172000000Y-102380000D03*
%TO.P,U4,2,2B*%
%TO.N,/M1C2*%
X172000000Y-103660000D03*
%TO.P,U4,3,3B*%
%TO.N,/M1C3*%
X172000000Y-104920000D03*
%TO.P,U4,4,4B*%
%TO.N,/M1C4*%
X172000000Y-106190000D03*
%TO.P,U4,5,5B*%
%TO.N,unconnected-(U4-5B-Pad5)*%
X172000000Y-107470000D03*
%TO.P,U4,6,6B*%
%TO.N,unconnected-(U4-6B-Pad6)*%
X172000000Y-108740000D03*
%TO.P,U4,7,7B*%
%TO.N,unconnected-(U4-7B-Pad7)*%
X172000000Y-110000000D03*
%TO.P,U4,8,E*%
%TO.N,GND*%
X172000000Y-111280000D03*
%TO.P,U4,9,COM*%
%TO.N,+5VP*%
X177480000Y-111280000D03*
%TO.P,U4,10,7C*%
%TO.N,unconnected-(U4-7C-Pad10)*%
X177480000Y-110000000D03*
%TO.P,U4,11,6C*%
%TO.N,unconnected-(U4-6C-Pad11)*%
X177480000Y-108740000D03*
%TO.P,U4,12,5C*%
%TO.N,unconnected-(U4-5C-Pad12)*%
X177480000Y-107470000D03*
%TO.P,U4,13,4C*%
%TO.N,Net-(J1-COIL4)*%
X177480000Y-106190000D03*
%TO.P,U4,14,3C*%
%TO.N,Net-(J1-COIL3)*%
X177480000Y-104920000D03*
%TO.P,U4,15,2C*%
%TO.N,Net-(J1-COIL2)*%
X177480000Y-103660000D03*
%TO.P,U4,16,1C*%
%TO.N,Net-(J1-COIL1)*%
X177480000Y-102380000D03*
%TD*%
D16*
%TO.P,C5,1*%
%TO.N,+3V3*%
X172000000Y-113020000D03*
%TO.P,C5,2*%
%TO.N,GND*%
X172000000Y-115980000D03*
%TD*%
D18*
%TO.P,C10,1*%
%TO.N,+5VP*%
X136500000Y-112900000D03*
%TO.P,C10,2*%
%TO.N,GND*%
X136500000Y-111000000D03*
%TD*%
D19*
%TO.P,R2,1*%
%TO.N,+5V*%
X178410000Y-98000000D03*
%TO.P,R2,2*%
%TO.N,Net-(J3-SIG)*%
X176590000Y-98000000D03*
%TD*%
D20*
%TO.P,C4,1*%
%TO.N,+5V*%
X169500000Y-118050000D03*
%TO.P,C4,2*%
%TO.N,GND*%
X169500000Y-119950000D03*
%TD*%
D21*
%TO.P,R1,1*%
%TO.N,+3V3*%
X169500000Y-97590000D03*
%TO.P,R1,2*%
%TO.N,/SERVO*%
X169500000Y-99410000D03*
%TD*%
D22*
%TO.P,J4,1*%
%TO.N,+5VP*%
X181000000Y-113500000D03*
D23*
%TO.P,J4,2*%
%TO.N,GND*%
X181000000Y-119500000D03*
D24*
%TO.P,J4,3*%
%TO.N,unconnected-(J4-Pad3)*%
X185700000Y-116500000D03*
%TD*%
D17*
%TO.P,U2,1,1B*%
%TO.N,/M2C1*%
X141980000Y-124040000D03*
%TO.P,U2,2,2B*%
%TO.N,/M2C2*%
X141980000Y-122760000D03*
%TO.P,U2,3,3B*%
%TO.N,/M2C3*%
X141980000Y-121500000D03*
%TO.P,U2,4,4B*%
%TO.N,/M2C4*%
X141980000Y-120230000D03*
%TO.P,U2,5,5B*%
%TO.N,unconnected-(U2-5B-Pad5)*%
X141980000Y-118950000D03*
%TO.P,U2,6,6B*%
%TO.N,unconnected-(U2-6B-Pad6)*%
X141980000Y-117680000D03*
%TO.P,U2,7,7B*%
%TO.N,unconnected-(U2-7B-Pad7)*%
X141980000Y-116420000D03*
%TO.P,U2,8,E*%
%TO.N,GND*%
X141980000Y-115140000D03*
%TO.P,U2,9,COM*%
%TO.N,+5VP*%
X136500000Y-115140000D03*
%TO.P,U2,10,7C*%
%TO.N,unconnected-(U2-7C-Pad10)*%
X136500000Y-116420000D03*
%TO.P,U2,11,6C*%
%TO.N,unconnected-(U2-6C-Pad11)*%
X136500000Y-117680000D03*
%TO.P,U2,12,5C*%
%TO.N,unconnected-(U2-5C-Pad12)*%
X136500000Y-118950000D03*
%TO.P,U2,13,4C*%
%TO.N,Net-(J2-COIL4)*%
X136500000Y-120230000D03*
%TO.P,U2,14,3C*%
%TO.N,Net-(J2-COIL3)*%
X136500000Y-121500000D03*
%TO.P,U2,15,2C*%
%TO.N,Net-(J2-COIL2)*%
X136500000Y-122760000D03*
%TO.P,U2,16,1C*%
%TO.N,Net-(J2-COIL1)*%
X136500000Y-124040000D03*
%TD*%
D18*
%TO.P,C3,1*%
%TO.N,+5VP*%
X182500000Y-110450000D03*
%TO.P,C3,2*%
%TO.N,GND*%
X182500000Y-108550000D03*
%TD*%
D15*
%TO.P,C7,1*%
%TO.N,+5VP*%
X185500000Y-100480000D03*
%TO.P,C7,2*%
%TO.N,GND*%
X185500000Y-97520000D03*
%TD*%
D18*
%TO.P,C8,1*%
%TO.N,+5VP*%
X188000000Y-99950000D03*
%TO.P,C8,2*%
%TO.N,GND*%
X188000000Y-98050000D03*
%TD*%
D25*
%TO.P,Q2,1,G*%
%TO.N,+3V3*%
X172120000Y-97550000D03*
%TO.P,Q2,2,S*%
%TO.N,/SERVO*%
X172120000Y-99450000D03*
%TO.P,Q2,3,D*%
%TO.N,Net-(J3-SIG)*%
X174000000Y-98500000D03*
%TD*%
D12*
%TO.P,J5,1,Pin_1*%
%TO.N,+5VP*%
X173000000Y-124500000D03*
D13*
%TO.P,J5,2,Pin_2*%
%TO.N,+5V*%
X170460000Y-124500000D03*
%TD*%
D26*
%TO.P,U1,0,GPIO0*%
%TO.N,/SERVO*%
X165000000Y-105220000D03*
%TO.P,U1,1,GPIO1*%
%TO.N,/M1C1*%
X165000000Y-107760000D03*
%TO.P,U1,2,GPIO2*%
%TO.N,/M1C2*%
X165000000Y-110300000D03*
%TO.P,U1,3,GPIO3*%
%TO.N,/M1C3*%
X147500000Y-105220000D03*
%TO.P,U1,4,GPIO4*%
%TO.N,/M1C4*%
X147500000Y-107760000D03*
%TO.P,U1,5,GPIO5*%
%TO.N,unconnected-(U1-GPIO5-Pad5)*%
X147500000Y-110300000D03*
%TO.P,U1,6,GPIO6*%
%TO.N,unconnected-(U1-GPIO6-Pad6)*%
X147500000Y-112840000D03*
%TO.P,U1,7,GPIO7*%
%TO.N,/M2C1*%
X147500000Y-115380000D03*
%TO.P,U1,8,GPIO8*%
%TO.N,unconnected-(U1-GPIO8-Pad8)*%
X147500000Y-117920000D03*
%TO.P,U1,9,GPIO9*%
%TO.N,unconnected-(U1-GPIO9-Pad9)*%
X147500000Y-120460000D03*
%TO.P,U1,10,GPIO10*%
%TO.N,/M2C2*%
X147500000Y-123000000D03*
%TO.P,U1,GD,GND*%
%TO.N,GND*%
X165000000Y-120460000D03*
%TO.P,U1,RX,GPIO20*%
%TO.N,/M2C3*%
X165000000Y-115380000D03*
%TO.P,U1,TX,GPIO21*%
%TO.N,/M2C4*%
X165000000Y-112840000D03*
%TO.P,U1,V3,3V3*%
%TO.N,+3V3*%
X165000000Y-117920000D03*
%TO.P,U1,v5*%
%TO.N,N/C*%
X165000000Y-123000000D03*
%TD*%
D20*
%TO.P,C6,1*%
%TO.N,+3V3*%
X169500000Y-114050000D03*
%TO.P,C6,2*%
%TO.N,GND*%
X169500000Y-115950000D03*
%TD*%
D27*
%TO.N,+5V*%
X174244000Y-117856000D03*
X179324000Y-99060000D03*
%TO.N,GND*%
X181591427Y-109587686D03*
X183388000Y-98044000D03*
X185000000Y-109000000D03*
%TO.N,+3V3*%
X163000000Y-101000000D03*
X163000000Y-118000000D03*
%TO.N,/SERVO*%
X165500000Y-99500000D03*
%TO.N,/M2C1*%
X144000000Y-124000000D03*
%TO.N,/M2C3*%
X145500000Y-121500000D03*
X156620000Y-115380000D03*
%TO.N,/M2C4*%
X145500000Y-119500000D03*
X158160000Y-112840000D03*
%TO.N,/M1C1*%
X167640000Y-102616000D03*
%TO.N,+5VP*%
X185420000Y-102108000D03*
%TD*%
D28*
%TO.N,+5V*%
X179324000Y-98914000D02*
X178410000Y-98000000D01*
X172000000Y-118020000D02*
X174080000Y-118020000D01*
X179324000Y-99060000D02*
X179324000Y-98914000D01*
X174080000Y-118020000D02*
X174244000Y-117856000D01*
D29*
%TO.N,GND*%
X183388000Y-98044000D02*
X184976000Y-98044000D01*
X182500000Y-108550000D02*
X182500000Y-108679113D01*
X169500000Y-115950000D02*
X171970000Y-115950000D01*
X136500000Y-111000000D02*
X139980000Y-111000000D01*
X181000000Y-119500000D02*
X173480000Y-119500000D01*
X139980000Y-111000000D02*
X143306000Y-114326000D01*
X173480000Y-119500000D02*
X173030000Y-119950000D01*
X188000000Y-98050000D02*
X190910000Y-98050000D01*
X179000000Y-119500000D02*
X175480000Y-115980000D01*
X187470000Y-97520000D02*
X188000000Y-98050000D01*
X165510000Y-119950000D02*
X165000000Y-120460000D01*
X182500000Y-108679113D02*
X181591427Y-109587686D01*
X185500000Y-97520000D02*
X187470000Y-97520000D01*
X169500000Y-119950000D02*
X165510000Y-119950000D01*
X173030000Y-119950000D02*
X169500000Y-119950000D01*
X181000000Y-119500000D02*
X175000000Y-113500000D01*
X175000000Y-112500000D02*
X173780000Y-111280000D01*
X142794000Y-114326000D02*
X143500000Y-114326000D01*
X143500000Y-114326000D02*
X143306000Y-114326000D01*
X158960000Y-120460000D02*
X165000000Y-120460000D01*
X171970000Y-115950000D02*
X172000000Y-115980000D01*
X175000000Y-113500000D02*
X175000000Y-112500000D01*
X184976000Y-98044000D02*
X185500000Y-97520000D01*
X185000000Y-107520000D02*
X185000000Y-109000000D01*
X173780000Y-111280000D02*
X172000000Y-111280000D01*
X141980000Y-115140000D02*
X142794000Y-114326000D01*
X190910000Y-98050000D02*
X191000000Y-97960000D01*
X152826000Y-114326000D02*
X158960000Y-120460000D01*
X173480000Y-119500000D02*
X172000000Y-120980000D01*
X143306000Y-114326000D02*
X139000000Y-110020000D01*
X175480000Y-115980000D02*
X172000000Y-115980000D01*
X181000000Y-119500000D02*
X179000000Y-119500000D01*
X143500000Y-114326000D02*
X152826000Y-114326000D01*
%TO.N,+3V3*%
X172000000Y-113020000D02*
X170530000Y-113020000D01*
X163000000Y-99410000D02*
X164820000Y-97590000D01*
X169540000Y-97550000D02*
X169500000Y-97590000D01*
X170530000Y-113020000D02*
X169500000Y-114050000D01*
X164820000Y-97590000D02*
X169500000Y-97590000D01*
X163080000Y-117920000D02*
X163000000Y-118000000D01*
X163000000Y-101000000D02*
X163000000Y-99410000D01*
X165000000Y-117920000D02*
X165000000Y-118000000D01*
X165000000Y-118000000D02*
X165550000Y-118000000D01*
X165000000Y-117920000D02*
X163080000Y-117920000D01*
X165550000Y-118000000D02*
X169500000Y-114050000D01*
X172120000Y-97550000D02*
X169540000Y-97550000D01*
D30*
%TO.N,/SERVO*%
X170450000Y-99450000D02*
X172120000Y-99450000D01*
X165500000Y-99500000D02*
X165590000Y-99410000D01*
X169500000Y-99410000D02*
X170410000Y-99410000D01*
X170410000Y-99410000D02*
X170450000Y-99450000D01*
X165590000Y-99410000D02*
X169500000Y-99410000D01*
%TO.N,Net-(J3-SIG)*%
X176590000Y-98000000D02*
X181630000Y-103040000D01*
X181630000Y-103040000D02*
X191000000Y-103040000D01*
X174000000Y-98500000D02*
X174500000Y-98500000D01*
X175000000Y-98000000D02*
X176590000Y-98000000D01*
X174500000Y-98500000D02*
X175000000Y-98000000D01*
D29*
%TO.N,Net-(J2-COIL4)*%
X135230000Y-120230000D02*
X129000000Y-114000000D01*
X136500000Y-120230000D02*
X135230000Y-120230000D01*
D31*
%TO.N,/M2C2*%
X147500000Y-123000000D02*
X142220000Y-123000000D01*
X142220000Y-123000000D02*
X141980000Y-122760000D01*
D29*
%TO.N,Net-(J2-COIL2)*%
X132760000Y-122760000D02*
X136500000Y-122760000D01*
X129000000Y-119000000D02*
X132760000Y-122760000D01*
D31*
%TO.N,/M2C1*%
X143960000Y-124040000D02*
X141980000Y-124040000D01*
X144000000Y-124000000D02*
X143960000Y-124040000D01*
D29*
%TO.N,Net-(J2-COIL3)*%
X129000000Y-116500000D02*
X134000000Y-121500000D01*
X134000000Y-121500000D02*
X136500000Y-121500000D01*
D30*
%TO.N,/M2C3*%
X165000000Y-115380000D02*
X156620000Y-115380000D01*
D31*
X145500000Y-121500000D02*
X141980000Y-121500000D01*
%TO.N,/M2C4*%
X145500000Y-119500000D02*
X144500000Y-119500000D01*
X144500000Y-119500000D02*
X143770000Y-120230000D01*
X143770000Y-120230000D02*
X141980000Y-120230000D01*
D30*
X165000000Y-112840000D02*
X158160000Y-112840000D01*
D29*
%TO.N,Net-(J2-COIL1)*%
X129000000Y-121500000D02*
X131540000Y-124040000D01*
X131540000Y-124040000D02*
X136500000Y-124040000D01*
D28*
%TO.N,Net-(J1-COIL4)*%
X188014000Y-115514000D02*
X191500000Y-119000000D01*
X185467928Y-106190000D02*
X188014000Y-108736072D01*
X177480000Y-106190000D02*
X185467928Y-106190000D01*
X188014000Y-108736072D02*
X188014000Y-115514000D01*
D30*
%TO.N,/M1C2*%
X172585000Y-103660000D02*
X172000000Y-103660000D01*
X173285000Y-104360000D02*
X172585000Y-103660000D01*
X173285000Y-106438528D02*
X173285000Y-104360000D01*
X172933528Y-106790000D02*
X173285000Y-106438528D01*
X168510000Y-106790000D02*
X172933528Y-106790000D01*
X165000000Y-110300000D02*
X168510000Y-106790000D01*
D28*
%TO.N,Net-(J1-COIL3)*%
X188468000Y-107188000D02*
X188468000Y-113468000D01*
X177480000Y-104920000D02*
X177716000Y-105156000D01*
X177716000Y-105156000D02*
X186436000Y-105156000D01*
X188468000Y-113468000D02*
X191500000Y-116500000D01*
X186436000Y-105156000D02*
X188468000Y-107188000D01*
D30*
%TO.N,/M1C1*%
X167876000Y-102380000D02*
X172000000Y-102380000D01*
X167640000Y-102616000D02*
X167876000Y-102380000D01*
D28*
%TO.N,Net-(J1-COIL2)*%
X186944000Y-104648000D02*
X188976000Y-106680000D01*
X177480000Y-103660000D02*
X181004078Y-103660000D01*
X181004078Y-103660000D02*
X181992078Y-104648000D01*
X188976000Y-111476000D02*
X191500000Y-114000000D01*
X181992078Y-104648000D02*
X186944000Y-104648000D01*
X188976000Y-106680000D02*
X188976000Y-111476000D01*
%TO.N,Net-(J1-COIL1)*%
X177480000Y-102380000D02*
X180366130Y-102380000D01*
X187960000Y-104140000D02*
X191500000Y-107680000D01*
X182126130Y-104140000D02*
X187960000Y-104140000D01*
X180366130Y-102380000D02*
X182126130Y-104140000D01*
X191500000Y-107680000D02*
X191500000Y-111500000D01*
D30*
%TO.N,/M1C4*%
X149070000Y-106190000D02*
X172000000Y-106190000D01*
X147500000Y-107760000D02*
X149070000Y-106190000D01*
%TO.N,/M1C3*%
X169344000Y-104320000D02*
X169944000Y-104920000D01*
X147500000Y-105220000D02*
X157416000Y-105220000D01*
X169944000Y-104920000D02*
X172000000Y-104920000D01*
X158316000Y-104320000D02*
X169344000Y-104320000D01*
X157416000Y-105220000D02*
X158316000Y-104320000D01*
D29*
%TO.N,+5VP*%
X173000000Y-124500000D02*
X173000000Y-125500000D01*
X141724000Y-126500000D02*
X141232000Y-126500000D01*
D31*
X139000000Y-112980000D02*
X138500000Y-112980000D01*
D29*
X140000000Y-113980000D02*
X139000000Y-112980000D01*
X140000000Y-125268000D02*
X140000000Y-113980000D01*
X134400000Y-112900000D02*
X133000000Y-111500000D01*
X133000000Y-111500000D02*
X129000000Y-111500000D01*
X185500000Y-100480000D02*
X187470000Y-100480000D01*
X181000000Y-113500000D02*
X181000000Y-111950000D01*
D28*
X181670000Y-111280000D02*
X182500000Y-110450000D01*
D29*
X141232000Y-126500000D02*
X140000000Y-125268000D01*
X181000000Y-111950000D02*
X182500000Y-110450000D01*
D31*
X138500000Y-112980000D02*
X138420000Y-112900000D01*
D29*
X188000000Y-99950000D02*
X190450000Y-99950000D01*
X173000000Y-125500000D02*
X172008000Y-126492000D01*
X181980000Y-113500000D02*
X185000000Y-110480000D01*
X136500000Y-112900000D02*
X134400000Y-112900000D01*
X187433000Y-112913000D02*
X187433000Y-117433000D01*
X177480000Y-111280000D02*
X181670000Y-111280000D01*
X185420000Y-100560000D02*
X185500000Y-100480000D01*
X139000000Y-112980000D02*
X136580000Y-112980000D01*
X187470000Y-100480000D02*
X188000000Y-99950000D01*
X185000000Y-110480000D02*
X187433000Y-112913000D01*
X141732000Y-126492000D02*
X141724000Y-126500000D01*
X136500000Y-112900000D02*
X136500000Y-115140000D01*
X181000000Y-113500000D02*
X181980000Y-113500000D01*
X190450000Y-99950000D02*
X191000000Y-100500000D01*
X136580000Y-112980000D02*
X136500000Y-112900000D01*
X172008000Y-126492000D02*
X141732000Y-126492000D01*
X187433000Y-117433000D02*
X191500000Y-121500000D01*
X185420000Y-102108000D02*
X185420000Y-100560000D01*
%TD*%
M02*
